# xmcd CD database file
#
# Track frame offsets:
#	150
#	15778
#	35467
#	47472
#	62770
#	85533
#	102148
#	122142
#	137817
#	156877
#	173019
#	188228
#
# Disc length: 2805 seconds
#
# Revision: 0
# Processed by: cddbd v1.5.1PL0 Copyright (c) Steve Scherf et al.
# Submitted via: CDex 1.51
#
DISCID=8a0af30c
DTITLE=Itsuwa Mayumi - Atsui Sayonara
DYEAR=1900
DGENRE=Jazz
TTITLE0=Itsuwa Mayumi - Shojo
TTITLE1=Itsuwa Mayumi - California
TTITLE2=Itsuwa Mayumi - Rivival
TTITLE3=Itsuwa Mayumi - Ai Kagi
TTITLE4=Itsuwa Mayumi - Pari no Ryojo
TTITLE5=Itsuwa Mayumi - Koibito yo
TTITLE6=Itsuwa Mayumi - Taningaeri
TTITLE7=Itsuwa Mayumi - Towazu Tabaco
TTITLE8=Itsuwa Mayumi - Sunao ni Narenakute
TTITLE9=Itsuwa Mayumi - Jealousy
TTITLE10=Itsuwa Mayumi - Atsui Sayonara
TTITLE11=Itsuwa Mayumi - Toki wo Mitsumete
EXTD=
EXTT0=
EXTT1=
EXTT2=
EXTT3=
EXTT4=
EXTT5=
EXTT6=
EXTT7=
EXTT8=
EXTT9=
EXTT10=
EXTT11=
PLAYORDER=
